<?xml version="1.0" standalone="no"?><!DOCTYPE svg PUBLIC "-//W3C//DTD SVG 1.1//EN" "http://www.w3.org/Graphics/SVG/1.1/DTD/svg11.dtd"><svg xmlns:xlink="http://www.w3.org/1999/xlink" version="1.1" class="highcharts-root" style="font-family:&quot;Lucida Grande&quot;, &quot;Lucida Sans Unicode&quot;, Arial, Helvetica, sans-serif;font-size:12px;" xmlns="http://www.w3.org/2000/svg" width="600" height="400" viewBox="0 0 600 400"><desc>Created with Highcharts 6.0.4</desc><defs><clipPath id="highcharts-4atdzsd-7"><rect x="0" y="0" width="528" height="266" fill="none"></rect></clipPath></defs><rect fill="#ffffff" class="highcharts-background" x="0" y="0" width="600" height="400" rx="0" ry="0"></rect><rect fill="none" class="highcharts-plot-background" x="62" y="61" width="528" height="266"></rect><g class="highcharts-grid highcharts-xaxis-grid "><path fill="none" class="highcharts-grid-line" d="M 120.5 61 L 120.5 327" opacity="1"></path><path fill="none" class="highcharts-grid-line" d="M 178.5 61 L 178.5 327" opacity="1"></path><path fill="none" class="highcharts-grid-line" d="M 237.5 61 L 237.5 327" opacity="1"></path><path fill="none" class="highcharts-grid-line" d="M 296.5 61 L 296.5 327" opacity="1"></path><path fill="none" class="highcharts-grid-line" d="M 354.5 61 L 354.5 327" opacity="1"></path><path fill="none" class="highcharts-grid-line" d="M 413.5 61 L 413.5 327" opacity="1"></path><path fill="none" class="highcharts-grid-line" d="M 472.5 61 L 472.5 327" opacity="1"></path><path fill="none" class="highcharts-grid-line" d="M 530.5 61 L 530.5 327" opacity="1"></path><path fill="none" class="highcharts-grid-line" d="M 589.5 61 L 589.5 327" opacity="1"></path><path fill="none" class="highcharts-grid-line" d="M 61.5 61 L 61.5 327" opacity="1"></path></g><g class="highcharts-grid highcharts-yaxis-grid "><path fill="none" stroke="#e6e6e6" stroke-width="1" class="highcharts-grid-line" d="M 62 327.5 L 590 327.5" opacity="1"></path><path fill="none" stroke="#e6e6e6" stroke-width="1" class="highcharts-grid-line" d="M 62 261.5 L 590 261.5" opacity="1"></path><path fill="none" stroke="#e6e6e6" stroke-width="1" class="highcharts-grid-line" d="M 62 194.5 L 590 194.5" opacity="1"></path><path fill="none" stroke="#e6e6e6" stroke-width="1" class="highcharts-grid-line" d="M 62 128.5 L 590 128.5" opacity="1"></path><path fill="none" stroke="#e6e6e6" stroke-width="1" class="highcharts-grid-line" d="M 62 60.5 L 590 60.5" opacity="1"></path></g><rect fill="none" class="highcharts-plot-border" x="62" y="61" width="528" height="266"></rect><g class="highcharts-axis highcharts-xaxis "><path fill="none" class="highcharts-tick" stroke="#ccd6eb" stroke-width="1" d="M 120.5 327 L 120.5 337" opacity="1"></path><path fill="none" class="highcharts-tick" stroke="#ccd6eb" stroke-width="1" d="M 178.5 327 L 178.5 337" opacity="1"></path><path fill="none" class="highcharts-tick" stroke="#ccd6eb" stroke-width="1" d="M 237.5 327 L 237.5 337" opacity="1"></path><path fill="none" class="highcharts-tick" stroke="#ccd6eb" stroke-width="1" d="M 296.5 327 L 296.5 337" opacity="1"></path><path fill="none" class="highcharts-tick" stroke="#ccd6eb" stroke-width="1" d="M 354.5 327 L 354.5 337" opacity="1"></path><path fill="none" class="highcharts-tick" stroke="#ccd6eb" stroke-width="1" d="M 413.5 327 L 413.5 337" opacity="1"></path><path fill="none" class="highcharts-tick" stroke="#ccd6eb" stroke-width="1" d="M 472.5 327 L 472.5 337" opacity="1"></path><path fill="none" class="highcharts-tick" stroke="#ccd6eb" stroke-width="1" d="M 530.5 327 L 530.5 337" opacity="1"></path><path fill="none" class="highcharts-tick" stroke="#ccd6eb" stroke-width="1" d="M 590.5 327 L 590.5 337" opacity="1"></path><path fill="none" class="highcharts-tick" stroke="#ccd6eb" stroke-width="1" d="M 61.5 327 L 61.5 337" opacity="1"></path><path fill="none" class="highcharts-axis-line" stroke="#ccd6eb" stroke-width="1" d="M 62 327.5 L 590 327.5"></path></g><g class="highcharts-axis highcharts-yaxis "><text x="23.625" text-anchor="middle" transform="translate(0,0) rotate(270 23.625 194)" class="highcharts-axis-title" style="color:#666666;fill:#666666;" y="194"><tspan>Temperature (°C)</tspan></text><path fill="none" class="highcharts-axis-line" d="M 62 61 L 62 327"></path></g><g class="highcharts-series-group"><g class="highcharts-series highcharts-series-0 highcharts-line-series highcharts-color-0 " transform="translate(62,61) scale(1 1)" clip-path="url(#highcharts-4atdzsd-7)"><path fill="none" d="M 29.333333333333 263.17375 L 88 262.3425 L 146.66666666667 262.4755 L 205.33333333333 262.84125 L 264 263.0075 L 322.66666666667 263.10725 L 381.33333333333 264.23775 L 440 264.6035 L 498.66666666667 264.4705" class="highcharts-graph" stroke="#7cb5ec" stroke-width="2" stroke-linejoin="round" stroke-linecap="round"></path></g><g class="highcharts-markers highcharts-series-0 highcharts-line-series highcharts-color-0 " transform="translate(62,61) scale(1 1)" clip-path="none"><path fill="#7cb5ec" d="M 33 263 A 4 4 0 1 1 32.99999800000017 262.99600000066664 Z" class="highcharts-point highcharts-color-0"></path><path fill="#7cb5ec" d="M 92 262 A 4 4 0 1 1 91.99999800000016 261.99600000066664 Z" class="highcharts-point highcharts-color-0"></path><path fill="#7cb5ec" d="M 150 262 A 4 4 0 1 1 149.99999800000018 261.99600000066664 Z" class="highcharts-point highcharts-color-0"></path><path fill="#7cb5ec" d="M 209 263 A 4 4 0 1 1 208.99999800000018 262.99600000066664 Z" class="highcharts-point highcharts-color-0"></path><path fill="#7cb5ec" d="M 268 263 A 4 4 0 1 1 267.9999980000002 262.99600000066664 Z" class="highcharts-point highcharts-color-0"></path><path fill="#7cb5ec" d="M 326 263 A 4 4 0 1 1 325.9999980000002 262.99600000066664 Z" class="highcharts-point highcharts-color-0"></path><path fill="#7cb5ec" d="M 385 264 A 4 4 0 1 1 384.9999980000002 263.99600000066664 Z" class="highcharts-point highcharts-color-0"></path><path fill="#7cb5ec" d="M 444 265 A 4 4 0 1 1 443.9999980000002 264.99600000066664 Z" class="highcharts-point highcharts-color-0"></path><path fill="#7cb5ec" d="M 502 264 A 4 4 0 1 1 501.9999980000002 263.99600000066664 Z" class="highcharts-point highcharts-color-0"></path></g><g class="highcharts-series highcharts-series-1 highcharts-line-series highcharts-color-1 " transform="translate(62,61) scale(1 1)" clip-path="url(#highcharts-4atdzsd-7)"><path fill="none" d="M 29.333333333333 176.59075 L 88 168.0455 L 146.66666666667 189.25900000000001 L 205.33333333333 193.08274999999998 L 264 202.79174999999998 L 322.66666666667 208.90975 L 381.33333333333 218.12 L 440 226.0335 L 498.66666666667 229.824" class="highcharts-graph" stroke="#434348" stroke-width="2" stroke-linejoin="round" stroke-linecap="round"></path></g><g class="highcharts-markers highcharts-series-1 highcharts-line-series highcharts-color-1 " transform="translate(62,61) scale(1 1)" clip-path="none"><path fill="#434348" d="M 29 173 L 33 177 29 181 25 177 Z" class="highcharts-point highcharts-color-1"></path><path fill="#434348" d="M 88 164 L 92 168 88 172 84 168 Z" class="highcharts-point highcharts-color-1"></path><path fill="#434348" d="M 146 185 L 150 189 146 193 142 189 Z" class="highcharts-point highcharts-color-1"></path><path fill="#434348" d="M 205 189 L 209 193 205 197 201 193 Z" class="highcharts-point highcharts-color-1"></path><path fill="#434348" d="M 264 199 L 268 203 264 207 260 203 Z" class="highcharts-point highcharts-color-1"></path><path fill="#434348" d="M 322 205 L 326 209 322 213 318 209 Z" class="highcharts-point highcharts-color-1"></path><path fill="#434348" d="M 381 214 L 385 218 381 222 377 218 Z" class="highcharts-point highcharts-color-1"></path><path fill="#434348" d="M 440 222 L 444 226 440 230 436 226 Z" class="highcharts-point highcharts-color-1"></path><path fill="#434348" d="M 498 226 L 502 230 498 234 494 230 Z" class="highcharts-point highcharts-color-1"></path></g><g class="highcharts-series highcharts-series-2 highcharts-line-series highcharts-color-2 " transform="translate(62,61) scale(1 1)" clip-path="url(#highcharts-4atdzsd-7)"><path fill="none" d="M 29.333333333333 73.48249999999999 L 88 97.78825 L 146.66666666667 86.91549999999998 L 205.33333333333 99.28449999999998 L 264 116.50799999999998 L 322.66666666667 133.33249999999998 L 381.33333333333 146.26675 L 440 155.57675 L 498.66666666667 168.511" class="highcharts-graph" stroke="#90ed7d" stroke-width="2" stroke-linejoin="round" stroke-linecap="round"></path></g><g class="highcharts-markers highcharts-series-2 highcharts-line-series highcharts-color-2 " transform="translate(62,61) scale(1 1)" clip-path="none"><path fill="#90ed7d" d="M 25 69 L 33 69 33 77 25 77 Z" class="highcharts-point highcharts-color-2"></path><path fill="#90ed7d" d="M 84 94 L 92 94 92 102 84 102 Z" class="highcharts-point highcharts-color-2"></path><path fill="#90ed7d" d="M 142 83 L 150 83 150 91 142 91 Z" class="highcharts-point highcharts-color-2"></path><path fill="#90ed7d" d="M 201 95 L 209 95 209 103 201 103 Z" class="highcharts-point highcharts-color-2"></path><path fill="#90ed7d" d="M 260 113 L 268 113 268 121 260 121 Z" class="highcharts-point highcharts-color-2"></path><path fill="#90ed7d" d="M 318 129 L 326 129 326 137 318 137 Z" class="highcharts-point highcharts-color-2"></path><path fill="#90ed7d" d="M 377 142 L 385 142 385 150 377 150 Z" class="highcharts-point highcharts-color-2"></path><path fill="#90ed7d" d="M 436 152 L 444 152 444 160 436 160 Z" class="highcharts-point highcharts-color-2"></path><path fill="#90ed7d" d="M 494 165 L 502 165 502 173 494 173 Z" class="highcharts-point highcharts-color-2"></path></g></g><text x="300" text-anchor="middle" class="highcharts-title" style="color:#333333;font-size:18px;fill:#333333;" y="24"><tspan>Teen Pregnancy rate in New York</tspan></text><text x="300" text-anchor="middle" class="highcharts-subtitle" style="color:#666666;fill:#666666;" y="46"><tspan>blah blah blah</tspan></text><g class="highcharts-data-labels highcharts-series-0 highcharts-line-series highcharts-color-0 " visibility="visible" transform="translate(62,61) scale(1 1)"><g class="highcharts-label highcharts-data-label highcharts-data-label-color-0 " transform="translate(17,240)"><text x="5" style="font-size:11px;font-weight:bold;color:#000000;fill:#000000;" y="16"><tspan x="5" y="16" class="highcharts-text-outline" fill="#FFFFFF" stroke="#FFFFFF" stroke-width="2px" stroke-linejoin="round" style="">85</tspan><tspan x="5" y="16">85</tspan></text></g><g class="highcharts-label highcharts-data-label highcharts-data-label-color-0 " transform="translate(72,239)"><text x="5" style="font-size:11px;font-weight:bold;color:#000000;fill:#000000;" y="16"><tspan x="5" y="16" class="highcharts-text-outline" fill="#FFFFFF" stroke="#FFFFFF" stroke-width="2px" stroke-linejoin="round" style="">110</tspan><tspan x="5" y="16">110</tspan></text></g><g class="highcharts-label highcharts-data-label highcharts-data-label-color-0 " transform="translate(131,239)"><text x="5" style="font-size:11px;font-weight:bold;color:#000000;fill:#000000;" y="16"><tspan x="5" y="16" class="highcharts-text-outline" fill="#FFFFFF" stroke="#FFFFFF" stroke-width="2px" stroke-linejoin="round">106</tspan><tspan x="5" y="16">106</tspan></text></g><g class="highcharts-label highcharts-data-label highcharts-data-label-color-0 " transform="translate(193,240)"><text x="5" style="font-size:11px;font-weight:bold;color:#000000;fill:#000000;" y="16"><tspan x="5" y="16" class="highcharts-text-outline" fill="#FFFFFF" stroke="#FFFFFF" stroke-width="2px" stroke-linejoin="round">95</tspan><tspan x="5" y="16">95</tspan></text></g><g class="highcharts-label highcharts-data-label highcharts-data-label-color-0 " transform="translate(252,240)"><text x="5" style="font-size:11px;font-weight:bold;color:#000000;fill:#000000;" y="16"><tspan x="5" y="16" class="highcharts-text-outline" fill="#FFFFFF" stroke="#FFFFFF" stroke-width="2px" stroke-linejoin="round">90</tspan><tspan x="5" y="16">90</tspan></text></g><g class="highcharts-label highcharts-data-label highcharts-data-label-color-0 " transform="translate(310,240)"><text x="5" style="font-size:11px;font-weight:bold;color:#000000;fill:#000000;" y="16"><tspan x="5" y="16" class="highcharts-text-outline" fill="#FFFFFF" stroke="#FFFFFF" stroke-width="2px" stroke-linejoin="round">87</tspan><tspan x="5" y="16">87</tspan></text></g><g class="highcharts-label highcharts-data-label highcharts-data-label-color-0 " transform="translate(369,241)"><text x="5" style="font-size:11px;font-weight:bold;color:#000000;fill:#000000;" y="16"><tspan x="5" y="16" class="highcharts-text-outline" fill="#FFFFFF" stroke="#FFFFFF" stroke-width="2px" stroke-linejoin="round">53</tspan><tspan x="5" y="16">53</tspan></text></g><g class="highcharts-label highcharts-data-label highcharts-data-label-color-0 " transform="translate(428,242)"><text x="5" style="font-size:11px;font-weight:bold;color:#000000;fill:#000000;" y="16"><tspan x="5" y="16" class="highcharts-text-outline" fill="#FFFFFF" stroke="#FFFFFF" stroke-width="2px" stroke-linejoin="round">42</tspan><tspan x="5" y="16">42</tspan></text></g><g class="highcharts-label highcharts-data-label highcharts-data-label-color-0 " transform="translate(486,241)"><text x="5" style="font-size:11px;font-weight:bold;color:#000000;fill:#000000;" y="16"><tspan x="5" y="16" class="highcharts-text-outline" fill="#FFFFFF" stroke="#FFFFFF" stroke-width="2px" stroke-linejoin="round">46</tspan><tspan x="5" y="16">46</tspan></text></g></g><g class="highcharts-data-labels highcharts-series-1 highcharts-line-series highcharts-color-1 " visibility="visible" transform="translate(62,61) scale(1 1)"><g class="highcharts-label highcharts-data-label highcharts-data-label-color-1 " transform="translate(8,154)"><text x="5" style="font-size:11px;font-weight:bold;color:#000000;fill:#000000;" y="16"><tspan x="5" y="16" class="highcharts-text-outline" fill="#FFFFFF" stroke="#FFFFFF" stroke-width="2px" stroke-linejoin="round" style="">2 689</tspan><tspan x="5" y="16">2 689</tspan></text></g><g class="highcharts-label highcharts-data-label highcharts-data-label-color-1 " transform="translate(67,145)"><text x="5" style="font-size:11px;font-weight:bold;color:#000000;fill:#000000;" y="16"><tspan x="5" y="16" class="highcharts-text-outline" fill="#FFFFFF" stroke="#FFFFFF" stroke-width="2px" stroke-linejoin="round">2 946</tspan><tspan x="5" y="16">2 946</tspan></text></g><g class="highcharts-label highcharts-data-label highcharts-data-label-color-1 " transform="translate(125,166)"><text x="5" style="font-size:11px;font-weight:bold;color:#000000;fill:#000000;" y="16"><tspan x="5" y="16" class="highcharts-text-outline" fill="#FFFFFF" stroke="#FFFFFF" stroke-width="2px" stroke-linejoin="round">2 308</tspan><tspan x="5" y="16">2 308</tspan></text></g><g class="highcharts-label highcharts-data-label highcharts-data-label-color-1 " transform="translate(184,170)"><text x="5" style="font-size:11px;font-weight:bold;color:#000000;fill:#000000;" y="16"><tspan x="5" y="16" class="highcharts-text-outline" fill="#FFFFFF" stroke="#FFFFFF" stroke-width="2px" stroke-linejoin="round">2 193</tspan><tspan x="5" y="16">2 193</tspan></text></g><g class="highcharts-label highcharts-data-label highcharts-data-label-color-1 " transform="translate(243,180)"><text x="5" style="font-size:11px;font-weight:bold;color:#000000;fill:#000000;" y="16"><tspan x="5" y="16" class="highcharts-text-outline" fill="#FFFFFF" stroke="#FFFFFF" stroke-width="2px" stroke-linejoin="round">1 901</tspan><tspan x="5" y="16">1 901</tspan></text></g><g class="highcharts-label highcharts-data-label highcharts-data-label-color-1 " transform="translate(301,186)"><text x="5" style="font-size:11px;font-weight:bold;color:#000000;fill:#000000;" y="16"><tspan x="5" y="16" class="highcharts-text-outline" fill="#FFFFFF" stroke="#FFFFFF" stroke-width="2px" stroke-linejoin="round">1 717</tspan><tspan x="5" y="16">1 717</tspan></text></g><g class="highcharts-label highcharts-data-label highcharts-data-label-color-1 " transform="translate(360,195)"><text x="5" style="font-size:11px;font-weight:bold;color:#000000;fill:#000000;" y="16"><tspan x="5" y="16" class="highcharts-text-outline" fill="#FFFFFF" stroke="#FFFFFF" stroke-width="2px" stroke-linejoin="round">1 440</tspan><tspan x="5" y="16">1 440</tspan></text></g><g class="highcharts-label highcharts-data-label highcharts-data-label-color-1 " transform="translate(419,203)"><text x="5" style="font-size:11px;font-weight:bold;color:#000000;fill:#000000;" y="16"><tspan x="5" y="16" class="highcharts-text-outline" fill="#FFFFFF" stroke="#FFFFFF" stroke-width="2px" stroke-linejoin="round">1 202</tspan><tspan x="5" y="16">1 202</tspan></text></g><g class="highcharts-label highcharts-data-label highcharts-data-label-color-1 " transform="translate(477,207)"><text x="5" style="font-size:11px;font-weight:bold;color:#000000;fill:#000000;" y="16"><tspan x="5" y="16" class="highcharts-text-outline" fill="#FFFFFF" stroke="#FFFFFF" stroke-width="2px" stroke-linejoin="round">1 088</tspan><tspan x="5" y="16">1 088</tspan></text></g></g><g class="highcharts-data-labels highcharts-series-2 highcharts-line-series highcharts-color-2 " visibility="visible" transform="translate(62,61) scale(1 1)"><g class="highcharts-label highcharts-data-label highcharts-data-label-color-2 " transform="translate(8,50)"><text x="5" style="font-size:11px;font-weight:bold;color:#000000;fill:#000000;" y="16"><tspan x="5" y="16" class="highcharts-text-outline" fill="#FFFFFF" stroke="#FFFFFF" stroke-width="2px" stroke-linejoin="round">5 790</tspan><tspan x="5" y="16">5 790</tspan></text></g><g class="highcharts-label highcharts-data-label highcharts-data-label-color-2 " transform="translate(67,75)"><text x="5" style="font-size:11px;font-weight:bold;color:#000000;fill:#000000;" y="16"><tspan x="5" y="16" class="highcharts-text-outline" fill="#FFFFFF" stroke="#FFFFFF" stroke-width="2px" stroke-linejoin="round">5 059</tspan><tspan x="5" y="16">5 059</tspan></text></g><g class="highcharts-label highcharts-data-label highcharts-data-label-color-2 " transform="translate(125,64)"><text x="5" style="font-size:11px;font-weight:bold;color:#000000;fill:#000000;" y="16"><tspan x="5" y="16" class="highcharts-text-outline" fill="#FFFFFF" stroke="#FFFFFF" stroke-width="2px" stroke-linejoin="round">5 386</tspan><tspan x="5" y="16">5 386</tspan></text></g><g class="highcharts-label highcharts-data-label highcharts-data-label-color-2 " transform="translate(184,76)"><text x="5" style="font-size:11px;font-weight:bold;color:#000000;fill:#000000;" y="16"><tspan x="5" y="16" class="highcharts-text-outline" fill="#FFFFFF" stroke="#FFFFFF" stroke-width="2px" stroke-linejoin="round">5 014</tspan><tspan x="5" y="16">5 014</tspan></text></g><g class="highcharts-label highcharts-data-label highcharts-data-label-color-2 " transform="translate(243,94)"><text x="5" style="font-size:11px;font-weight:bold;color:#000000;fill:#000000;" y="16"><tspan x="5" y="16" class="highcharts-text-outline" fill="#FFFFFF" stroke="#FFFFFF" stroke-width="2px" stroke-linejoin="round">4 496</tspan><tspan x="5" y="16">4 496</tspan></text></g><g class="highcharts-label highcharts-data-label highcharts-data-label-color-2 " transform="translate(301,110)"><text x="5" style="font-size:11px;font-weight:bold;color:#000000;fill:#000000;" y="16"><tspan x="5" y="16" class="highcharts-text-outline" fill="#FFFFFF" stroke="#FFFFFF" stroke-width="2px" stroke-linejoin="round">3 990</tspan><tspan x="5" y="16">3 990</tspan></text></g><g class="highcharts-label highcharts-data-label highcharts-data-label-color-2 " transform="translate(360,123)"><text x="5" style="font-size:11px;font-weight:bold;color:#000000;fill:#000000;" y="16"><tspan x="5" y="16" class="highcharts-text-outline" fill="#FFFFFF" stroke="#FFFFFF" stroke-width="2px" stroke-linejoin="round">3 601</tspan><tspan x="5" y="16">3 601</tspan></text></g><g class="highcharts-label highcharts-data-label highcharts-data-label-color-2 " transform="translate(419,133)"><text x="5" style="font-size:11px;font-weight:bold;color:#000000;fill:#000000;" y="16"><tspan x="5" y="16" class="highcharts-text-outline" fill="#FFFFFF" stroke="#FFFFFF" stroke-width="2px" stroke-linejoin="round">3 321</tspan><tspan x="5" y="16">3 321</tspan></text></g><g class="highcharts-label highcharts-data-label highcharts-data-label-color-2 " transform="translate(477,146)"><text x="5" style="font-size:11px;font-weight:bold;color:#000000;fill:#000000;" y="16"><tspan x="5" y="16" class="highcharts-text-outline" fill="#FFFFFF" stroke="#FFFFFF" stroke-width="2px" stroke-linejoin="round">2 932</tspan><tspan x="5" y="16">2 932</tspan></text></g></g><g class="highcharts-legend" transform="translate(182,360)"><rect fill="none" class="highcharts-legend-box" rx="0" ry="0" x="0" y="0" width="236" height="25" visibility="visible"></rect><g><g><g class="highcharts-legend-item highcharts-line-series highcharts-color-0 highcharts-series-0" transform="translate(8,3)"><path fill="none" d="M 0 11 L 16 11" class="highcharts-graph" stroke="#7cb5ec" stroke-width="2"></path><path fill="#7cb5ec" d="M 12 11 A 4 4 0 1 1 11.999998000000167 10.996000000666664 Z" class="highcharts-point"></path><text x="21" style="color:#333333;font-size:12px;font-weight:bold;cursor:pointer;fill:#333333;" text-anchor="start" y="15"><tspan>10-14</tspan></text></g><g class="highcharts-legend-item highcharts-line-series highcharts-color-1 highcharts-series-1" transform="translate(88.328125,3)"><path fill="none" d="M 0 11 L 16 11" class="highcharts-graph" stroke="#434348" stroke-width="2"></path><path fill="#434348" d="M 8 7 L 12 11 8 15 4 11 Z" class="highcharts-point"></path><text x="21" y="15" style="color:#333333;font-size:12px;font-weight:bold;cursor:pointer;fill:#333333;" text-anchor="start"><tspan>15-17</tspan></text></g><g class="highcharts-legend-item highcharts-line-series highcharts-color-2 highcharts-series-2" transform="translate(168.65625,3)"><path fill="none" d="M 0 11 L 16 11" class="highcharts-graph" stroke="#90ed7d" stroke-width="2"></path><path fill="#90ed7d" d="M 4 7 L 12 7 12 15 4 15 Z" class="highcharts-point"></path><text x="21" y="15" style="color:#333333;font-size:12px;font-weight:bold;cursor:pointer;fill:#333333;" text-anchor="start"><tspan>18-19</tspan></text></g></g></g></g><g class="highcharts-axis-labels highcharts-xaxis-labels "><text x="91.33333333333333" style="color:#666666;cursor:default;font-size:11px;fill:#666666;" text-anchor="middle" transform="translate(0,0)" y="346" opacity="1">2007</text><text x="149.99999999999997" style="color:#666666;cursor:default;font-size:11px;fill:#666666;" text-anchor="middle" transform="translate(0,0)" y="346" opacity="1">2008</text><text x="208.66666666666666" style="color:#666666;cursor:default;font-size:11px;fill:#666666;" text-anchor="middle" transform="translate(0,0)" y="346" opacity="1">2009</text><text x="267.3333333333333" style="color:#666666;cursor:default;font-size:11px;fill:#666666;" text-anchor="middle" transform="translate(0,0)" y="346" opacity="1">2010</text><text x="326" style="color:#666666;cursor:default;font-size:11px;fill:#666666;" text-anchor="middle" transform="translate(0,0)" y="346" opacity="1">2011</text><text x="384.66666666666663" style="color:#666666;cursor:default;font-size:11px;fill:#666666;" text-anchor="middle" transform="translate(0,0)" y="346" opacity="1">2012</text><text x="443.3333333333333" style="color:#666666;cursor:default;font-size:11px;fill:#666666;" text-anchor="middle" transform="translate(0,0)" y="346" opacity="1">2013</text><text x="501.99999999999994" style="color:#666666;cursor:default;font-size:11px;fill:#666666;" text-anchor="middle" transform="translate(0,0)" y="346" opacity="1">2014</text><text x="560.6666666666666" style="color:#666666;cursor:default;font-size:11px;fill:#666666;" text-anchor="middle" transform="translate(0,0)" y="346" opacity="1">2015</text></g><g class="highcharts-axis-labels highcharts-yaxis-labels "><text x="47" style="color:#666666;cursor:default;font-size:11px;fill:#666666;" text-anchor="end" transform="translate(0,0)" y="332" opacity="1"><tspan>0</tspan></text><text x="47" style="color:#666666;cursor:default;font-size:11px;fill:#666666;" text-anchor="end" transform="translate(0,0)" y="265" opacity="1"><tspan>2k</tspan></text><text x="47" style="color:#666666;cursor:default;font-size:11px;fill:#666666;" text-anchor="end" transform="translate(0,0)" y="199" opacity="1"><tspan>4k</tspan></text><text x="47" style="color:#666666;cursor:default;font-size:11px;fill:#666666;" text-anchor="end" transform="translate(0,0)" y="132" opacity="1"><tspan>6k</tspan></text><text x="47" style="color:#666666;cursor:default;font-size:11px;fill:#666666;" text-anchor="end" transform="translate(0,0)" y="66" opacity="1"><tspan>8k</tspan></text></g><text x="590" class="highcharts-credits" text-anchor="end" style="cursor:pointer;color:#999999;font-size:9px;fill:#999999;" y="395">Highcharts.com</text></svg>